<?xml version="1.0" encoding="utf-8"?>
<!-- Generator: Adobe Illustrator 16.0.0, SVG Export Plug-In . SVG Version: 6.00 Build 0)  -->
<!DOCTYPE svg PUBLIC "-//W3C//DTD SVG 1.1//EN" "http://www.w3.org/Graphics/SVG/1.1/DTD/svg11.dtd">
<svg version="1.1" id="Layer_1" xmlns="http://www.w3.org/2000/svg" xmlns:xlink="http://www.w3.org/1999/xlink" x="0px" y="0px"
	 width="525.229px" height="166.443px" viewBox="0 0 525.229 166.443" enable-background="new 0 0 525.229 166.443"
	 xml:space="preserve">
<g>
	<path d="M0.133,0.443c0.644-0.147,1.288-0.425,1.93-0.422C25.05,0.134,48.05-0.112,71.018,0.639
		C78.149,0.872,85.403,3.236,92.21,5.7c6.195,2.243,10.663,6.856,10.729,14.216c0.068,7.681-3.699,13.071-10.494,16.144
		c-4.156,1.877-8.656,2.995-13.493,4.616c4.717,0.928,9.037,1.533,13.221,2.646c8.084,2.151,14.372,6.497,15.684,15.438
		c1.343,9.146-2.344,16.287-9.845,21.436c-9.299,6.382-19.94,8.132-30.895,8.197C44.79,88.526,22.461,88.44,0.133,88.444
		c0-1.334,0-2.666,0-4c1.29-0.273,2.568-0.65,3.872-0.802c4.142-0.481,6.171-2.647,6.162-6.918c-0.049-22.105-0.046-44.211,0-66.316
		c0.007-3.623-1.709-5.553-5.159-6.147c-1.624-0.279-3.25-0.546-4.875-0.816C0.133,2.443,0.133,1.443,0.133,0.443z M45.488,82.226
		c8.89,0.562,17.292,0.94,22.487-7.662c3.862-6.396,3.654-18.448-0.658-23.305c-5.917-6.661-13.866-5.656-21.829-5.446
		C45.488,58.133,45.488,69.898,45.488,82.226z M45.572,39.023c10.585,1.877,18.381-0.598,21.979-6.828
		c3.394-5.878,2.723-15.745-1.411-20.748c-3.951-4.782-13.576-6.922-20.567-4.595C45.572,17.605,45.572,28.343,45.572,39.023z"/>
	<path d="M228.165,90.099c-7.096-1.645-14.226-2.925-21.314-4.596c-2.818-0.665-3.949-2.344-3.775-5.393
		c0.271-4.791,0.072-9.608,0.072-14.414c0.476-0.361,0.952-0.723,1.427-1.084c1.327,1.266,3.255,2.286,3.886,3.835
		c5.602,13.741,24.515,20.905,37.707,13.835c1.913-1.024,4.219-3.737,4.105-5.527c-0.15-2.379-1.961-5.651-4.008-6.714
		c-5.268-2.729-11.065-4.438-16.639-6.589c-4.334-1.674-8.865-2.994-12.931-5.176c-15.757-8.456-16.418-28.646-1.238-38.204
		c11.609-7.311,24.552-7.525,37.666-6.199c0.826,0.083,1.651,0.232,2.46,0.421c18.949,4.431,15.301,1.159,15.014,21.137
		c-2.037-1.458-4.014-2.128-4.648-3.446c-5.379-11.132-19.979-16.674-31.27-11.304c-1.928,0.917-4.227,3.557-4.217,5.39
		c0.01,2.12,1.902,5.214,3.824,6.152c5.191,2.532,10.871,4.044,16.279,6.158c4.476,1.751,9.016,3.468,13.219,5.763
		c9.159,5.002,12.893,13.176,12.093,23.346c-0.779,9.921-6.605,16.199-15.772,19.146c-5.496,1.769-11.136,3.058-16.969,3.808
		C238.883,91.443,232.498,90.613,228.165,90.099z"/>
	<path d="M302.171,90.074c-0.223-0.023-0.445-0.052-0.667-0.085c-3.604-0.538-7.368-1.492-10.552-3.331
		c-5.947-3.437-7.788-9.825-7.889-16.338c-0.213-13.657-0.069-27.32-0.08-40.98c-0.002-1.799,0-3.599,0-4.663
		c-2.603-3.339-9.271,1.803-8.836-5.846c3.793-0.771,7.514-1.432,11.187-2.292c8.261-1.935,15.149-6.188,19.899-13.227
		c2.331-3.453,4.974-3.846,8.835-2.811c0,5.431,0,10.875,0,16.853c5.773,0,11.184,0,16.809,0c0,2.124,0,3.712,0,5.711
		c-5.396,0-10.676,0-16.757,0c0,2.146,0,3.893,0,5.639c0,12.994-0.001,25.988,0,38.982c0.001,10.063,4.895,13.981,14.988,11.975
		c1.458-0.29,2.89-0.718,4.706-1.177c0.578,1.217,1.189,2.496,1.904,3.993c0.15,0.313-5.139,2.841-5.651,3.062
		c-1.956,0.854-3.979,1.546-6.026,2.141c-2.035,0.588-4.097,1.074-6.165,1.529c-1.967,0.435-3.979,0.749-6.011,0.909
		c-4.087,0.322-3.833,0.318-5.438,0.322C304.876,90.447,303.717,90.236,302.171,90.074z"/>
	<path d="M465.106,88.283c-17.548,0-33.507,0-49.467,0c-0.361-0.347-0.728-0.693-1.092-1.04c1.092-1.149,1.994-2.958,3.31-3.337
		c6.757-1.951,7.785-3.039,7.797-10.021c0.021-14.487-0.044-28.977,0.036-43.465c0.022-4.536-0.992-7.812-6.363-8.322
		c-1.052-0.102-1.906-2.271-3.572-4.413c13.89,0,26.164,0,38.903,0c0.17,2.416,0.337,4.793,0.538,7.668
		c3.141-2.246,5.852-4.346,8.719-6.204c7.731-5.017,16.038-6.834,25.234-4.898c12.594,2.652,19.32,10.438,19.432,23.402
		c0.104,12.323,0.088,24.646-0.006,36.97c-0.035,4.828,0.967,8.523,6.628,9.412c1.001,0.156,1.703,2.215,3.122,4.207
		c-16.772,0-32.054,0-47.333,0c-0.358-0.351-0.716-0.701-1.073-1.051c1.1-1.146,2.049-3.041,3.326-3.295
		c4.312-0.857,5.839-3.611,5.857-7.472c0.071-13.819,0.161-27.646-0.049-41.464c-0.106-7.112-4.088-10.171-11.16-9.287
		c-8.461,1.06-12.288,5.3-12.288,13.612c0,11.324-0.021,22.648,0.013,33.972c0.014,5.025,0.294,9.837,6.918,10.854
		C463.417,84.246,463.989,86.389,465.106,88.283z"/>
	<g>
		<path d="M328.146,50.431l0.016,0.006c-0.003-0.14-0.006-0.277-0.008-0.416C328.153,50.158,328.146,50.294,328.146,50.431z"/>
		<path d="M406.56,78.321c0.737-0.659,1.433-1.342,2.104-2.036c-0.693,0.695-1.43,1.359-2.189,2.005L406.56,78.321z"/>
		<path d="M408.669,25.299c6.787,7.03,10.187,15.768,10.448,24.465C418.88,40.759,415.301,31.953,408.669,25.299z"/>
		<path d="M419.121,50.788c0.001,0.342,0.005,0.685-0.004,1.025C419.128,51.471,419.121,51.13,419.121,50.788z"/>
		<path d="M328.146,49.608c0,0.138,0.007,0.274,0.008,0.413c0.002-0.141,0.005-0.279,0.009-0.418L328.146,49.608z"/>
		<path d="M419.117,49.762c0.009,0.342,0.005,0.684,0.004,1.025C419.121,50.446,419.128,50.105,419.117,49.762z"/>
		<path d="M419.117,51.814c-0.264,8.701-3.663,17.439-10.455,24.471C415.298,69.63,418.88,60.821,419.117,51.814z"/>
		<path d="M406.56,23.255l-0.089,0.03c0.764,0.649,1.502,1.316,2.198,2.014C407.996,24.601,407.3,23.916,406.56,23.255z"/>
		<path d="M419.117,49.762c-0.264-8.697-3.661-17.435-10.448-24.465c-0.696-0.697-1.436-1.364-2.198-2.014
			c-2.763-2.348-5.945-4.367-9.562-5.926c-13.702-5.906-27.768-6.395-41.896-1.844c-16.749,5.393-26.512,18.021-26.849,34.088
			c-0.004,0.139-0.007,0.277-0.009,0.418c0.002,0.139,0.005,0.276,0.008,0.416c0.336,16.118,10.1,30.231,26.85,35.626
			c14.129,4.549,28.194,4.062,41.896-1.846c3.618-1.56,6.803-3.578,9.564-5.928c0.761-0.646,1.496-1.31,2.189-2.005
			c6.792-7.031,10.191-15.771,10.455-24.471c0.009-0.341,0.005-0.685,0.004-1.025C419.122,50.446,419.126,50.104,419.117,49.762z
			 M381.665,75.654c-1.703,3.721-4.035,7.009-8.711,7.228c-4.676-0.219-7.008-3.507-8.711-7.228
			c-1.73-3.779-2.571-8.601-2.985-13.446c-0.337-3.938-0.393-7.886-0.404-11.309h-0.004c0-0.103,0.001-0.209,0.001-0.312
			c0-0.103-0.001-0.211-0.001-0.312h0.004c0.013-3.568,0.071-7.706,0.448-11.81c0.43-4.676,1.271-9.297,2.941-12.945
			c1.703-3.723,4.035-7.011,8.711-7.229c4.676,0.219,7.008,3.507,8.711,7.229c0.76,1.659,1.344,3.521,1.8,5.497
			c1.43,6.18,1.569,13.473,1.59,19.258h0.003c0,0.102-0.001,0.209-0.001,0.312c0,0.104,0.001,0.211,0.001,0.312h-0.003
			c-0.021,5.77-0.157,13.041-1.578,19.212C383.019,72.103,382.431,73.982,381.665,75.654z"/>
		<path fill="#FFFFFF" d="M360.85,50.899h0.003c-0.001-0.104-0.001-0.209-0.002-0.312C360.851,50.69,360.85,50.798,360.85,50.899z"
			/>
		<path fill="#FFFFFF" d="M385.058,50.899c0-0.103-0.001-0.209-0.001-0.312c-0.001,0.104-0.001,0.208-0.002,0.312H385.058z"/>
		<path fill="#FFFFFF" d="M360.85,50.274c0,0.102,0.001,0.209,0.001,0.312c0.001-0.103,0.001-0.208,0.003-0.312H360.85z"/>
		<path fill="#FFFFFF" d="M385.058,50.274h-0.003c0.001,0.104,0.001,0.209,0.002,0.312
			C385.057,50.484,385.058,50.376,385.058,50.274z"/>
	</g>
	<g>
		<path d="M190.59,25.301c6.786,7.03,10.185,15.766,10.447,24.462C200.799,40.759,197.221,31.954,190.59,25.301z"/>
		<path d="M188.479,78.321c0.738-0.66,1.433-1.343,2.104-2.038c-0.694,0.696-1.431,1.36-2.191,2.007L188.479,78.321z"/>
		<path d="M110.065,50.431l0.016,0.006c-0.003-0.14-0.007-0.277-0.008-0.417C110.071,50.158,110.065,50.294,110.065,50.431z"/>
		<path d="M201.041,50.788c0,0.342,0.005,0.686-0.004,1.026C201.047,51.472,201.04,51.131,201.041,50.788z"/>
		<path d="M188.479,23.255l-0.089,0.03c0.764,0.649,1.503,1.316,2.2,2.016C189.917,24.603,189.22,23.917,188.479,23.255z"/>
		<path d="M110.065,49.608c0,0.138,0.006,0.274,0.008,0.413c0.001-0.141,0.005-0.279,0.008-0.418L110.065,49.608z"/>
		<path d="M201.037,51.815c-0.262,8.7-3.663,17.438-10.454,24.468C197.218,69.628,200.799,60.821,201.037,51.815z"/>
		<path d="M201.037,49.76c0.009,0.343,0.005,0.686,0.004,1.027C201.04,50.446,201.047,50.104,201.037,49.76z"/>
		<path d="M201.037,49.76c-0.262-8.695-3.661-17.431-10.447-24.461c-0.697-0.698-1.437-1.366-2.2-2.016
			c-2.762-2.349-5.946-4.367-9.563-5.927c-13.702-5.906-27.766-6.395-41.895-1.844c-16.75,5.393-26.512,18.021-26.85,34.088
			c-0.003,0.139-0.007,0.277-0.008,0.418c0.001,0.139,0.005,0.277,0.008,0.417c0.336,16.118,10.1,30.231,26.85,35.626
			c14.129,4.549,28.194,4.062,41.895-1.846c3.618-1.56,6.803-3.578,9.566-5.928c0.76-0.646,1.497-1.312,2.191-2.007
			c6.791-7.031,10.191-15.769,10.454-24.468c0.009-0.342,0.005-0.685,0.004-1.026C201.042,50.446,201.046,50.103,201.037,49.76z
			 M163.584,75.654c-1.703,3.721-4.035,7.009-8.711,7.228c-4.676-0.219-7.008-3.507-8.711-7.228
			c-1.73-3.779-2.571-8.601-2.985-13.446c-0.336-3.938-0.393-7.886-0.405-11.309h-0.002c0-0.103,0.001-0.209,0.001-0.312
			c0-0.103-0.001-0.211-0.001-0.312h0.002c0.013-3.568,0.073-7.706,0.449-11.81c0.429-4.676,1.27-9.297,2.941-12.945
			c1.703-3.723,4.035-7.011,8.711-7.229c4.676,0.219,7.008,3.507,8.711,7.229c0.76,1.659,1.344,3.521,1.8,5.497
			c1.43,6.18,1.569,13.473,1.59,19.258h0.002c0,0.102-0.001,0.209-0.001,0.312c0,0.104,0.001,0.211,0.001,0.312h-0.002
			c-0.021,5.77-0.159,13.041-1.579,19.212C164.938,72.103,164.35,73.982,163.584,75.654z"/>
		<path fill="#FFFFFF" d="M166.977,50.899c0-0.103-0.001-0.209-0.001-0.312c0,0.104,0,0.208-0.001,0.312H166.977z"/>
		<path fill="#FFFFFF" d="M142.769,50.899h0.002c0-0.104-0.001-0.209-0.001-0.312C142.77,50.69,142.77,50.798,142.769,50.899z"/>
		<path fill="#FFFFFF" d="M166.977,50.274h-0.002c0,0.104,0.001,0.209,0.001,0.312C166.976,50.484,166.977,50.376,166.977,50.274z"
			/>
		<path fill="#FFFFFF" d="M142.769,50.274c0,0.102,0.001,0.209,0.001,0.312c0-0.103,0-0.208,0.001-0.312H142.769z"/>
	</g>
	<path d="M265.532,84.196c-11.609,7.311-23.836,7.56-37.666,6.199c-0.826-0.081-1.146-0.155-2.461-0.421
		c-19.074-3.854-28.568-2.284-17.544-18.934c2.037,1.458,7.521,7.57,8.158,8.891c5.379,11.133,19.004,10.025,30.293,4.655"/>
</g>
<text transform="matrix(1 0 0 1 122.5322 150.0222)" font-family="'HoeflerText-Black'" font-size="54" letter-spacing="2">magazine</text>
</svg>
