<?xml version="1.0" encoding="utf-8"?>
<!-- Generator: Adobe Illustrator 16.0.0, SVG Export Plug-In . SVG Version: 6.00 Build 0)  -->
<!DOCTYPE svg PUBLIC "-//W3C//DTD SVG 1.1//EN" "http://www.w3.org/Graphics/SVG/1.1/DTD/svg11.dtd">
<svg version="1.1" id="Layer_1" xmlns="http://www.w3.org/2000/svg" xmlns:xlink="http://www.w3.org/1999/xlink" x="0px" y="0px"
	 width="701.385px" height="838.908px" viewBox="0 0 701.385 838.908" enable-background="new 0 0 701.385 838.908"
	 xml:space="preserve">
<g>
	<path d="M0,699.781c0-208.41,0-416.3,0-624.805c1.971,0,3.748,0,5.525,0c57.492,0,114.985-0.185,172.477,0.066
		c37.987,0.166,75.459,4.335,111.534,17.15c59.882,21.271,98.04,63.239,117.188,123.256c10.409,32.626,15.26,66.248,15.749,100.314
		c0.558,38.804,0.701,77.678-0.998,116.434c-2.055,46.843-11.049,92.511-30.528,135.602
		c-31.177,68.963-84.362,110.614-157.861,127.034c-15.497,3.462-31.081,5.149-47.026,5.069
		c-59.824-0.303-119.65-0.121-179.476-0.121C4.587,699.781,2.592,699.781,0,699.781z"/>
	<path d="M314.346,0c129.228,0,258.453,0,388.047,0c0,233.072,0,466.09,0,699.444c-99.102,0-198.245,0-297.737,0
		c0.549-0.632,0.785-1.077,1.153-1.303c36.023-21.939,59.896-54.278,77.979-91.467c18.273-37.579,28.968-77.512,35.903-118.532
		c7.521-44.492,10.008-89.36,8.996-134.421c-1.371-61.132-9.367-121.144-31.923-178.478
		C463.299,90.166,403.932,31.778,317.221,1.742c-1.023-0.354-2.026-0.769-3.04-1.155C314.236,0.391,314.291,0.196,314.346,0z"/>
	<path d="M681.426,817.396c0-14.926,0-29.851,0-45.183c-2.786-0.16-5.385-0.311-8.408-0.483c0-3.527,0-7.075,0-11.031
		c9.304,0,18.682,0,28.367,0c0,3.658,0,7.208,0,10.983c-2.142,0.159-4.076,0.305-6.551,0.488c0,21.512,0,42.894,0,64.798
		c-6.654,0-12.779,0.228-18.863-0.169c-1.414-0.092-3.196-2.052-3.952-3.576c-8.487-17.131-16.808-34.346-25.177-51.536
		c-0.725-1.488-1.477-2.965-2.967-4.395c0,16.03,0,32.061,0,48.504c2.74,0.193,5.645,0.397,8.855,0.624c0,3.462,0,6.693,0,10.244
		c-9.709,0-19.291,0-29.231,0c0-3.292,0-6.527,0-10.114c2.01-0.261,3.931-0.509,6.169-0.799c0-17.71,0-35.443,0-53.492
		c-2.037-0.203-3.962-0.396-6.199-0.62c0-3.522,0-6.954,0-11.334c6.192,0,12.496,0.577,18.648-0.143
		c8.272-0.968,12.643,1.825,15.916,9.804c6.049,14.742,13.525,28.898,20.416,43.295c0.704,1.472,1.461,2.915,2.192,4.371
		C680.904,817.556,681.165,817.477,681.426,817.396z"/>
	<path d="M286.125,836.667c0-3.541,0-6.651,0-10.117c2.069-0.243,4.002-0.47,6.32-0.742c0-17.672,0-35.392,0-53.499
		c-1.923-0.231-3.975-0.479-6.261-0.756c0-3.61,0-7.055,0-11.246c2.177,0,4.286-0.003,6.396,0
		c10.332,0.017,20.672-0.226,30.994,0.104c21.134,0.673,32.509,11.582,33.901,32.718c0.38,5.755-0.033,11.713-1.107,17.384
		c-2.884,15.227-13.068,24.876-28.799,25.962C313.99,837.409,300.297,836.667,286.125,836.667z M308.962,772.567
		c0,18.249,0,35.452,0,52.604c5.312,0,10.291,0.374,15.193-0.082c8.84-0.822,14.788-5.959,15.907-14.62
		c1.054-8.144,1.034-16.573,0.25-24.76c-0.639-6.671-5.312-11.133-12.221-11.97C321.884,772.99,315.59,772.945,308.962,772.567z"/>
	<path d="M367.785,836.572c0-3.445,0-6.683,0-10.118c2.081-0.226,3.865-0.419,6.055-0.656c0-17.753,0-35.473,0-53.476
		c-1.976-0.232-3.89-0.458-6.081-0.716c0-3.565,0-6.988,0-10.858c19.765,0,39.459,0,59.498,0c0,7.277,0,14.484,0,21.994
		c-4.129,0-8.047,0-12.521,0c0-3.135,0-6.211,0-9.598c-8.447,0-16.35,0-24.578,0c0,6.594,0,13.151,0,20.234
		c9.059,0,17.988,0,27.24,0c0,3.93,0,7.348,0,11.44c-8.953,0-17.996,0-27.292,0c0,7.241,0,13.817,0,20.693c8.394,0,16.628,0,25.28,0
		c0-3.39,0-6.664,0-10.337c4.305,0,8.205,0,12.553,0c0,6.896,0,13.938,0,21.396C408.088,836.572,388.204,836.572,367.785,836.572z"
		/>
	<path d="M608.832,782.922c-4.655,0-8.606,0-12.847,0c-0.163-1.251-0.408-2.35-0.435-3.453c-0.188-7.924-0.173-7.925-8.262-8.427
		c-14.401-0.894-23.639,6.957-24.742,21.292c-0.318,4.13-0.232,8.328,0.08,12.464c1.24,16.36,11.076,23.944,27.385,21.774
		c4.836-0.645,7.118-2.232,6.445-7.445c-0.459-3.551-0.088-7.209-0.088-11.287c-4.812,0-8.907,0-13.238,0c0-3.909,0-7.347,0-11.16
		c9.446,0,18.832,0,28.59,0c0,10.217,0.116,20.188-0.127,30.152c-0.035,1.471-1.447,3.371-2.769,4.276
		c-12.921,8.859-26.985,10.201-41.35,4.64c-13.327-5.162-19.711-16.195-20.684-29.88c-0.544-7.641-0.18-15.782,1.924-23.078
		c4.216-14.619,15.263-22.191,30.123-23.835c8.666-0.959,17.282-0.22,25.329,3.818c3.269,1.642,5.149,3.7,4.747,7.729
		C608.525,774.431,608.832,778.43,608.832,782.922z"/>
	<path d="M439.645,814.439c4.705,0,8.644,0,13.115,0c0,3.802,0,7.384,0,12.37c6.565,0,12.661,0.485,18.642-0.144
		c5.397-0.568,8.191-4.38,8.452-9.55c0.271-5.326-1.422-7.784-7.424-9.604c-5.717-1.731-11.594-2.937-17.352-4.545
		c-8.387-2.344-13.354-7.795-14.383-16.558c-1.152-9.823,0.922-18.608,10.21-23.585c12.383-6.635,25.031-5.411,37.323,0.705
		c1.213,0.603,2.473,2.408,2.562,3.732c0.312,4.608,0.121,9.251,0.121,14.176c-4.498,0-8.555,0-12.99,0c0-3.153,0-6.095,0-9.387
		c-6.104-1.918-11.941-2.147-17.703-0.049c-3.887,1.417-5.385,4.681-5.461,8.704c-0.076,4.013,1.812,6.843,5.506,8.005
		c4.742,1.492,9.614,2.594,14.467,3.708c15.179,3.488,20.953,9.711,20.646,22.394c-0.322,13.271-7.864,21.486-22.428,23.546
		c-10.062,1.423-19.907,0.127-29.156-4.52c-2.965-1.49-4.559-3.394-4.23-7.007C439.922,822.884,439.645,818.875,439.645,814.439z"/>
	<path d="M164.381,825.153c0-3.469,0-7.087,0-11.021c4.498,0,8.577,0,13.289,0c0,4.803,0.252,9.594-0.15,14.329
		c-0.125,1.463-1.79,3.106-3.159,4.105c-22.324,16.273-55.261,2.192-58.442-25.18c-0.778-6.694-0.851-13.758,0.375-20.349
		c3.877-20.84,20.952-31.628,42.913-27.878c0.328,0.057,0.648,0.157,0.975,0.221c15.467,2.975,18.512,7.375,15.949,23.401
		c-4.173,0-8.389,0-12.815,0c-0.132-1.101-0.285-1.896-0.315-2.697c-0.34-8.959-0.335-8.959-9.584-9.098
		c-13.311-0.199-20.992,6.84-21.706,20.08c-0.224,4.152-0.216,8.334-0.041,12.49C132.475,822.632,145.732,831.525,164.381,825.153z"
		/>
	<path d="M247.748,807.5c-0.125,18.967-11.582,30.823-29.788,30.824c-18.384,0.002-29.958-12.128-29.856-31.288
		c0.097-18.215,12.025-29.854,30.341-29.604C236.533,777.679,247.868,789.309,247.748,807.5z M203.389,808.115
		c0.538,3.326,0.793,7.183,1.833,10.814c1.775,6.204,6.251,9.283,12.599,9.342c6.386,0.06,11.57-2.817,12.677-9.046
		c1.228-6.906,1.526-14.223,0.707-21.181c-0.799-6.788-6.453-10.354-13.299-10.338c-6.861,0.015-11.528,3.566-13.235,10.52
		C203.925,801.26,203.84,804.454,203.389,808.115z"/>
	<path d="M528.976,772.197c0,18.035,0,35.775,0,53.619c2.376,0.221,4.479,0.416,6.864,0.637c0,3.49,0,6.723,0,10.242
		c-9.998,0-19.76,0-29.916,0c0-3.256,0-6.485,0-10.235c1.984-0.188,4.064-0.387,6.573-0.625c0-17.681,0-35.399,0-53.669
		c-1.925-0.128-4.019-0.267-6.538-0.435c0-3.533,0-7.086,0-11.036c9.842,0,19.727,0,29.903,0c0,3.611,0,7.054,0,10.898
		C533.748,771.779,531.655,771.963,528.976,772.197z"/>
	<path d="M274.417,828.506c0.116,4.993-3.907,9.257-8.942,9.479c-5.361,0.234-9.682-3.724-9.828-9.005
		c-0.146-5.291,3.938-9.736,9.094-9.898C269.766,818.924,274.296,823.337,274.417,828.506z"/>
</g>
</svg>
